<?xml version="1.0" encoding="UTF-8" standalone="no"?>
<!-- Created with Inkscape (http://www.inkscape.org/) -->

<svg
   xmlns:dc="http://purl.org/dc/elements/1.1/"
   xmlns:cc="http://creativecommons.org/ns#"
   xmlns:rdf="http://www.w3.org/1999/02/22-rdf-syntax-ns#"
   xmlns:svg="http://www.w3.org/2000/svg"
   xmlns="http://www.w3.org/2000/svg"
   xmlns:sodipodi="http://sodipodi.sourceforge.net/DTD/sodipodi-0.dtd"
   xmlns:inkscape="http://www.inkscape.org/namespaces/inkscape"
   width="744.09448819"
   height="1052.3622047"
   id="svg2"
   version="1.1"
   inkscape:version="0.48.3.1 r9886"
   sodipodi:docname="New document 1">
  <defs
     id="defs4" />
  <sodipodi:namedview
     id="base"
     pagecolor="#ffffff"
     bordercolor="#666666"
     borderopacity="1.0"
     inkscape:pageopacity="0.0"
     inkscape:pageshadow="2"
     inkscape:zoom="2.5774042"
     inkscape:cx="144.14452"
     inkscape:cy="765.36082"
     inkscape:document-units="px"
     inkscape:current-layer="layer1"
     showgrid="false"
     inkscape:window-width="1600"
     inkscape:window-height="876"
     inkscape:window-x="0"
     inkscape:window-y="24"
     inkscape:window-maximized="1" />
  <metadata
     id="metadata7">
    <rdf:RDF>
      <cc:Work
         rdf:about="">
        <dc:format>image/svg+xml</dc:format>
        <dc:type
           rdf:resource="http://purl.org/dc/dcmitype/StillImage" />
        <dc:title></dc:title>
      </cc:Work>
    </rdf:RDF>
  </metadata>
  <g
     inkscape:label="Layer 1"
     inkscape:groupmode="layer"
     id="layer1">
    <path
       style="fill:none;stroke:#000000;stroke-width:0.47944665px;stroke-linecap:butt;stroke-linejoin:miter;stroke-opacity:1"
       d="M 175.05878,165.69235 C 174.64753,181.23807 175.48511,219.86919 174.34675,235.39514 C 174.75235,238.88342 175.91863,251.8903 174.39012,248.95177 C 174.55683,238.7867 172.22482,222.6653 184.7202,219.01757 C 194.1627,215.98783 204.4011,222.68018 205.88949,232.39305 C 206.6331,242.70673 208.07947,256.40497 221.67371,256.4672 C 232.47585,256.49272 247.40569,261.09309 254.41391,250.00237 C 255.63488,241.76552 257.3191,230.76547 250.87941,224.20431 C 242.54347,216.02017 227.7859,225.79494 232.11749,236.76496 C 231.12387,246.24425 245.51418,266.55418 252.12568,251.96153 C 255.18638,240.65616 252.27142,228.71338 254.54569,217.24516 C 257.20127,227.88165 248.65656,241.06598 256.35018,249.98608 C 264.58981,254.40322 279.22484,251.28542 277.43157,239.46393 C 274.59169,227.99338 287.13182,215.83131 297.21684,224.84696 C 303.42586,229.26713 297.24486,242.77444 299.33701,244.25305 C 300.20163,235.68208 295.84095,220.17039 308.52227,219.10076 C 319.87336,218.02722 322.95032,231.25069 323.24696,240.1362 C 322.98847,250.37527 333.95786,255.298 342.81078,255.58034 C 353.83169,259.19393 364.53731,250.00808 362.8403,238.63424 C 362.96976,230.36642 359.46145,214.97527 348.24723,218.90428 C 337.54427,224.81089 337.37217,240.30944 343.09013,249.75108 C 351.23118,258.61417 364.2013,248.63198 364.87437,238.65885 C 366.81598,233.12611 364.70974,218.78916 365.52549,218.79312 C 367.17051,229.33485 364.11775,240.03043 366.2734,250.63623 C 367.4783,274.20516 368.32846,298.18125 363.49502,321.39721 C 359.89013,334.4578 336.68957,335.6929 333.32182,321.96035 C 331.20551,308.06269 337.8692,294.13875 346.76791,283.87428 C 355.67142,275.13109 365.56771,266.73945 377.62799,262.82485 C 383.96127,258.55679 388.77448,252.13483 391.28748,244.93918"
       id="path2985"
       inkscape:connector-curvature="0"
       sodipodi:nodetypes="ccccccccccccccccccccccccccccc" />
  </g>
</svg>
